<svg width="396" height="124.65527096391693" viewBox="0 0 355.3521070567268 111.85988179988662" class="looka-1j8o68f"><defs id="SvgjsDefs1067"></defs><g id="SvgjsG1068" featurekey="aMgJeN-0" transform="matrix(1.118587638267069,0,0,1.118587638267069,-26.28009312605136,0)" fill="#111111"><g xmlns="http://www.w3.org/2000/svg"><path d="M74.494,64.737c3.193-2.522,5.005-5.948,5.572-10.088c0.879-6.413-0.37-11.639-2.41-17.556h-1.245   c1.693,4.852,2.875,9.175,2.759,14.104l-1.201-0.855c-8.828-6.764-12.882,6.021-20.819,0.479c0,0-1.109,9.676,4.188,13.493   c-3.341-2.004-5.538-5.738-6.096-9.82c-0.879-6.379,0.432-11.5,2.486-17.401h-1.233c-2.044,5.917-3.291,11.143-2.415,17.556   c0.566,4.14,2.379,7.565,5.576,10.088c3.429,2.487,6.276,4.997,6.286,9.589c0,4.742,0,13.24,0,17.986   c-0.032,5.043-4.522,6.723-7.754,6.682c-0.703-0.01-0.705,1.006,0,1.006h8.886h8.888c0.705,0,0.695-1.016-0.006-1.006   c-3.226,0.043-7.723-1.638-7.755-6.682c0-4.746,0-13.242,0-17.986C68.217,69.734,71.065,67.225,74.494,64.737z"></path><path d="M42.337,27.224l-0.002-0.013c0,0-2.168-1.425-2.168-4.286c0-5.087,0-11.103,0-16.031c-0.004-0.812,0.935-0.498,0.941-1.207   V2.206C41.102,2.048,41,1.933,40.824,1.928H39.37V0h-6.049v1.928h-1.272c-0.176,0.005-0.278,0.12-0.283,0.278v3.482   c0.005,0.708,0.944,0.395,0.94,1.207c0,4.928,0,10.943,0,16.031c0,2.861-2.167,4.286-2.167,4.286l-0.002,0.013   c-4.18,2.146-7.043,6.489-7.043,11.509h0.017c-0.002,0.065-0.017,0.127-0.017,0.192v58.204c0.001,1.578,1.292,2.871,2.869,2.871   h20.145c1.577,0,2.868-1.293,2.869-2.871v-10.58V49.281V38.925c0-0.065-0.015-0.127-0.017-0.192h0.017   C49.378,33.712,46.515,29.37,42.337,27.224z"></path></g></g><g id="SvgjsG1069" featurekey="sloganFeature-0" transform="matrix(0.84126981084693,0,0,0.84126981084693,83.25968287132771,62.574921805839885)" fill="#111111"><path d="M13.48 9.96 l-1.88 0 c-0.54 -2.52 -2.64 -2.98 -4.02 -2.98 c-2.6 0 -4.7 1.92 -4.7 5.7 c0 3.38 1.2 5.98 4.76 5.98 c1.26 0 3.44 -0.6 4.1 -3.94 l1.88 0 c-0.8 5.42 -5.2 5.66 -6.28 5.66 c-3.26 0 -6.46 -2.12 -6.46 -7.64 c0 -4.42 2.52 -7.48 6.7 -7.48 c3.7 0 5.62 2.3 5.9 4.7 z M28.752 11.58 l0 -5.94 l1.94 0 l0 14.36 l-1.94 0 l0 -6.7 l-7.5 0 l0 6.7 l-1.94 0 l0 -14.36 l1.94 0 l0 5.94 l7.5 0 z M47.864 18.28 l0 1.72 l-10.6 0 l0 -14.36 l10.46 0 l0 1.72 l-8.52 0 l0 4.4 l7.86 0 l0 1.72 l-7.86 0 l0 4.8 l8.66 0 z M64.536 18.28 l0 1.72 l-10.6 0 l0 -14.36 l10.46 0 l0 1.72 l-8.52 0 l0 4.4 l7.86 0 l0 1.72 l-7.86 0 l0 4.8 l8.66 0 z M72.588 13.84 l0 6.16 l-1.94 0 l0 -14.36 l6.64 0 c2.36 0 4.72 0.82 4.72 3.86 c0 2.12 -1.08 2.9 -2 3.44 c0.82 0.34 1.64 0.7 1.72 2.7 l0.12 2.6 c0.02 0.8 0.12 1.1 0.72 1.44 l0 0.32 l-2.38 0 c-0.28 -0.88 -0.34 -3.06 -0.34 -3.6 c0 -1.18 -0.24 -2.56 -2.56 -2.56 l-4.7 0 z M72.588 7.300000000000001 l0 4.88 l4.5 0 c1.42 0 2.92 -0.36 2.92 -2.48 c0 -2.22 -1.62 -2.4 -2.58 -2.4 l-4.84 0 z M98.66 9.84 l-1.82 0 c-0.1 -2.22 -1.94 -2.92 -3.56 -2.92 c-1.22 0 -3.28 0.34 -3.28 2.52 c0 1.22 0.86 1.62 1.7 1.82 l4.1 0.94 c1.86 0.44 3.26 1.56 3.26 3.84 c0 3.4 -3.16 4.34 -5.62 4.34 c-2.66 0 -3.7 -0.8 -4.34 -1.38 c-1.22 -1.1 -1.46 -2.3 -1.46 -3.64 l1.82 0 c0 2.6 2.12 3.36 3.96 3.36 c1.4 0 3.76 -0.36 3.76 -2.42 c0 -1.5 -0.7 -1.98 -3.06 -2.54 l-2.94 -0.68 c-0.94 -0.22 -3.06 -0.88 -3.06 -3.38 c0 -2.24 1.46 -4.44 4.94 -4.44 c5.02 0 5.52 3 5.6 4.58 z M112.50399999999999 7.359999999999999 l0 -1.72 l11.66 0 l0 1.72 l-4.86 0 l0 12.64 l-1.94 0 l0 -12.64 l-4.86 0 z M140.55599999999998 12.82 c0 -3.38 -1.88 -5.84 -5 -5.84 s-5 2.46 -5 5.84 s1.88 5.84 5 5.84 s5 -2.46 5 -5.84 z M142.55599999999998 12.82 c0 3.1 -1.64 7.56 -7 7.56 s-7 -4.46 -7 -7.56 s1.64 -7.56 7 -7.56 s7 4.46 7 7.56 z M163.34 13.98 l0 -1.66 l6.3 0 l0 7.68 l-1.26 0 l-0.46 -1.86 c-0.98 1.36 -2.78 2.24 -4.74 2.24 c-2.46 0 -3.66 -0.9 -4.4 -1.62 c-2.2 -2.08 -2.26 -4.54 -2.26 -6.06 c0 -3.5 2.12 -7.44 6.8 -7.44 c2.68 0 5.66 1.52 6.08 4.74 l-1.88 0 c-0.62 -2.5 -2.72 -3.02 -4.3 -3.02 c-2.58 0 -4.7 2.06 -4.7 5.82 c0 2.92 0.96 5.92 4.78 5.92 c0.72 0 1.88 -0.08 2.94 -0.92 c1.26 -1 1.58 -2.28 1.58 -3.82 l-4.48 0 z M187.232 12.82 c0 -3.38 -1.88 -5.84 -5 -5.84 s-5 2.46 -5 5.84 s1.88 5.84 5 5.84 s5 -2.46 5 -5.84 z M189.232 12.82 c0 3.1 -1.64 7.56 -7 7.56 s-7 -4.46 -7 -7.56 s1.64 -7.56 7 -7.56 s7 4.46 7 7.56 z M206.124 12.82 c0 -3.38 -1.88 -5.84 -5 -5.84 s-5 2.46 -5 5.84 s1.88 5.84 5 5.84 s5 -2.46 5 -5.84 z M208.124 12.82 c0 3.1 -1.64 7.56 -7 7.56 s-7 -4.46 -7 -7.56 s1.64 -7.56 7 -7.56 s7 4.46 7 7.56 z M213.856 20 l0 -14.36 l5.82 0 c3.74 0 6.04 2.84 6.04 6.98 c0 3.22 -1.4 7.38 -6.12 7.38 l-5.74 0 z M215.796 7.300000000000001 l0 11.04 l3.76 0 c2.52 0 4.16 -1.98 4.16 -5.6 s-1.66 -5.44 -4.3 -5.44 l-3.62 0 z M239.17999999999998 7.359999999999999 l0 -1.72 l11.66 0 l0 1.72 l-4.86 0 l0 12.64 l-1.94 0 l0 -12.64 l-4.86 0 z M258.212 5.640000000000001 l0 14.36 l-1.94 0 l0 -14.36 l1.94 0 z M278.564 20 l-1.88 0 l0 -8.48 c0 -0.42 0.04 -2.24 0.04 -3.58 l-0.04 0 l-4.04 12.06 l-1.92 0 l-4.04 -12.04 l-0.04 0 c0 1.32 0.04 3.14 0.04 3.56 l0 8.48 l-1.88 0 l0 -14.36 l2.78 0 l4.1 12.14 l0.04 0 l4.08 -12.14 l2.76 0 l0 14.36 z M295.656 18.28 l0 1.72 l-10.6 0 l0 -14.36 l10.46 0 l0 1.72 l-8.52 0 l0 4.4 l7.86 0 l0 1.72 l-7.86 0 l0 4.8 l8.66 0 z M312.00800000000004 9.84 l-1.82 0 c-0.1 -2.22 -1.94 -2.92 -3.56 -2.92 c-1.22 0 -3.28 0.34 -3.28 2.52 c0 1.22 0.86 1.62 1.7 1.82 l4.1 0.94 c1.86 0.44 3.26 1.56 3.26 3.84 c0 3.4 -3.16 4.34 -5.62 4.34 c-2.66 0 -3.7 -0.8 -4.34 -1.38 c-1.22 -1.1 -1.46 -2.3 -1.46 -3.64 l1.82 0 c0 2.6 2.12 3.36 3.96 3.36 c1.4 0 3.76 -0.36 3.76 -2.42 c0 -1.5 -0.7 -1.98 -3.06 -2.54 l-2.94 -0.68 c-0.94 -0.22 -3.06 -0.88 -3.06 -3.38 c0 -2.24 1.46 -4.44 4.94 -4.44 c5.02 0 5.52 3 5.6 4.58 z"></path></g><g id="SvgjsG1070" featurekey="nameLeftFeature-0" transform="matrix(1.9091331572117216,0,0,1.9091331572117216,83.83281400103725,19.11869855904748)" fill="#111111"><path d="M12.909 6.82 c0.089004 0 0.1582 0.064804 0.1582 0.15381 c0 0.093008 -0.069004 0.15781 -0.15801 0.15781 l-0.48 0 c-0.52 0 -0.7558 0.26 -0.92 0.7 l-4.7614 12.241 l-0.37801 0 l-4.7042 -12.261 c-0.1442 -0.36 -0.42 -0.68 -0.98 -0.68 l-0.44 0 c-0.089004 0 -0.15801 -0.064804 -0.15801 -0.15781 c0 -0.089004 0.069004 -0.15381 0.15801 -0.15381 l4.5034 0 c0.089004 0 0.15801 0.064804 0.15801 0.15381 c0 0.093008 -0.069004 0.15781 -0.15801 0.15781 l-0.72 0 c-0.402 0 -0.62738 0.303 -0.47998 0.7 l3.7674 9.8886 l3.832 -9.8886 c0.14 -0.3616 -0.08039 -0.7 -0.48 -0.7 l-0.72 0 c-0.089004 0 -0.15801 -0.064804 -0.15801 -0.15781 c0 -0.089004 0.069004 -0.15381 0.15801 -0.15381 l2.9606 0 z M26.069000000000003 19.6882 c0.089004 0 0.15762 0.064804 0.15762 0.15801 c0 0.089004 -0.069004 0.15381 -0.15801 0.15381 l-4.5034 0 c-0.089004 0 -0.15801 -0.064804 -0.15801 -0.15381 c0 -0.093204 0.069004 -0.15801 0.15801 -0.15801 l0.72 0 c0.402 0 0.62738 -0.303 0.47998 -0.7 l-1.239 -3.249 l-5.1044 0 l-1.2558 3.249 c-0.14 0.3616 0.08039 0.7 0.48 0.7 l0.72 0 c0.089004 0 0.15801 0.064804 0.15801 0.15801 c0 0.089004 -0.069004 0.15381 -0.15801 0.15381 l-2.9606 0 c-0.089004 0 -0.15801 -0.064804 -0.15801 -0.15381 c0 -0.093204 0.069004 -0.15801 0.15801 -0.15801 l0.48 0 c0.52 0 0.7558 -0.26 0.92 -0.7 l4.7614 -12.241 l0.37801 0 l4.7042 12.261 c0.1442 0.36 0.42 0.68 0.98 0.68 l0.44 0 z M16.5468 15.4316 l4.8658 0 l-2.4148 -6.332 z M35.551 16.5158 c0.089004 0 0.154 0.06463 0.154 0.15783 l0 3.3262 l-8.604 0 c-0.093008 0 -0.15781 -0.064804 -0.15781 -0.15801 c0 -0.089004 0.064804 -0.15381 0.15781 -0.15381 l0.51801 0 c0.2906 0 0.48122 -0.2178 0.48122 -0.4618 l0 -11.631 c0 -0.2444 -0.1898 -0.4634 -0.48122 -0.4634 l-0.51801 0 c-0.093008 0 -0.15781 -0.064804 -0.15781 -0.15381 c0 -0.093204 0.064804 -0.15801 0.15781 -0.15801 l3.702 0 c0.093008 0 0.15781 0.064804 0.15781 0.15801 c0 0.089004 -0.064804 0.15381 -0.15781 0.15381 l-0.51801 0 c-0.2906 0 -0.48122 0.219 -0.48122 0.4618 l0 11.631 c0 0.2436 0.1898 0.4636 0.48122 0.4636 l2.6482 0 c1.6276 0 2.46 -1.3048 2.46 -2.6516 l0 -0.36279 c0 -0.093204 0.064804 -0.15801 0.15781 -0.15801 z M45.191 16.5158 c0.089004 0 0.154 0.06463 0.154 0.15783 l0 3.3262 l-8.604 0 c-0.093008 0 -0.15781 -0.064804 -0.15781 -0.15801 c0 -0.089004 0.064804 -0.15381 0.15781 -0.15381 l0.51801 0 c0.2906 0 0.48122 -0.2178 0.48122 -0.4618 l0 -11.631 c0 -0.2444 -0.1898 -0.4634 -0.48122 -0.4634 l-0.51801 0 c-0.093008 0 -0.15781 -0.064804 -0.15781 -0.15381 c0 -0.093204 0.064804 -0.15801 0.15781 -0.15801 l3.702 0 c0.093008 0 0.15781 0.064804 0.15781 0.15801 c0 0.089004 -0.064804 0.15381 -0.15781 0.15381 l-0.51801 0 c-0.2906 0 -0.48122 0.219 -0.48122 0.4618 l0 11.631 c0 0.2436 0.1898 0.4636 0.48122 0.4636 l2.6482 0 c1.6276 0 2.46 -1.3048 2.46 -2.6516 l0 -0.36279 c0 -0.093204 0.064804 -0.15801 0.15781 -0.15801 z M55.229 16.3572 c0.089004 0 0.154 0.065234 0.154 0.15844 l0 3.4848 l-9.002 0 c-0.093008 0 -0.15781 -0.064804 -0.15781 -0.15801 c0 -0.089004 0.064804 -0.15381 0.15781 -0.15381 l0.51801 0 c0.2906 0 0.48122 -0.219 0.48122 -0.4618 l0 -11.631 c0 -0.2436 -0.1898 -0.4636 -0.48122 -0.4636 l-0.51801 0 c-0.093008 0 -0.15781 -0.064804 -0.15781 -0.15381 c0 -0.093204 0.064804 -0.15801 0.15781 -0.15801 l8.9234 0 l0 3.4848 c0 0.093204 -0.064804 0.15801 -0.15781 0.15801 c-0.089004 0 -0.15381 -0.064804 -0.15381 -0.15801 l0 -0.80961 c0 -1.38 -0.82 -2.3634 -2.46 -2.3634 l-2.9678 0 c-0.2906 0 -0.48122 0.2178 -0.48122 0.4618 l0 5.3726 l1.5878 0 c1.6304 0 1.811 -0.5676 1.811 -1.4958 l0 -0.18279 c0 -0.089004 0.069004 -0.15801 0.15801 -0.15801 s0.15801 0.069004 0.15801 0.15801 l0 3.6772 c0 0.089004 -0.069004 0.15801 -0.15801 0.15801 s-0.15801 -0.064804 -0.15801 -0.17041 l0 -0.19859 c0 -0.8918 -0.1724 -1.4676 -1.811 -1.4676 l-1.5878 0 l0 5.9386 c0 0.2444 0.1898 0.4634 0.48122 0.4634 l3.0462 0 c1.64 0 2.46 -0.9834 2.46 -2.3634 l0 -0.80961 c0 -0.093204 0.064804 -0.15801 0.15781 -0.15801 z M68.053 6.82 c0.089004 0 0.15338 0.064804 0.15338 0.15381 c0 0.093008 -0.064804 0.15781 -0.15381 0.15781 l-0.4152 0 c-0.309 0 -0.5746 0.169 -0.7112 0.4656 l-3.378 6.5714 l0 5.0416 c0 0.249 0.1848 0.478 0.48202 0.478 l0.51801 0 c0.093008 0 0.15781 0.064804 0.15781 0.15381 c0 0.093204 -0.064804 0.15801 -0.15781 0.15801 l-3.7028 0 c-0.093008 0 -0.15781 -0.064804 -0.15781 -0.15801 c0 -0.089004 0.064804 -0.15381 0.15801 -0.15381 l0.51801 0 c0.2972 0 0.48202 -0.229 0.48202 -0.478 l0 -4.6724 l-3.6242 -6.9408 c-0.1366 -0.249 -0.3048 -0.4656 -0.7248 -0.4656 l-0.32 0 c-0.093204 0 -0.15801 -0.064804 -0.15801 -0.15781 c0 -0.089004 0.064804 -0.15381 0.15801 -0.15381 l3.84 0 c0.089004 0 0.15381 0.064804 0.15381 0.15381 c0 0.093008 -0.064804 0.15781 -0.15381 0.15781 l-0.53721 0 c-0.3426 0 -0.422 0.2192 -0.2938 0.4656 l3.1638 6.2382 l3.1798 -6.2382 c0.11699 -0.2248 0.019395 -0.4654 -0.353 -0.4654 l-0.42619 0 c-0.093008 0 -0.15781 -0.064804 -0.15781 -0.15781 c0 -0.089004 0.064804 -0.15381 0.15801 -0.15381 l2.3028 0 z"></path></g><g id="SvgjsG1071" featurekey="nameRightFeature-0" transform="matrix(1.8623721804846043,0,0,1.8623721804846043,224.98607484791444,19.745586754257737)" fill="#111111"><path d="M24.44 6.82 c0.22 0 0.38002 0.16 0.38002 0.38 c0 0.2 -0.16 0.36 -0.38 0.36 l-0.5 0 c-0.38 0 -0.7 0.16 -0.88 0.7 l-4 11.84 l-1.06 0 l-3.094 -8.308 l-3.006 8.308 l-1.06 0 l-4.22 -11.84 c-0.2 -0.54 -0.56 -0.7 -0.76 -0.7 l-0.64 0 c-0.22 0 -0.38 -0.16 -0.38 -0.38 c0 -0.2 0.16 -0.36 0.38 -0.36 l6.18 0 c0.22 0 0.38 0.16 0.38 0.38 c0 0.2 -0.16 0.36 -0.38 0.36 l-0.68 0 c-0.424 0 -0.63202 0.292 -0.50002 0.7 l2.4 7.424 l3.18 -8.864 l0.9 0 l3.032 8.756 l2.448 -7.316 c0.126 -0.388 -0.088008 -0.7 -0.5 -0.7 l-0.7 0 c-0.22 0 -0.38 -0.16 -0.38 -0.38 c0 -0.2 0.16 -0.36 0.38 -0.36 l3.46 0 z M31.04 19.26 c0.22 0 0.38 0.16 0.38 0.36 c0 0.22 -0.16 0.38 -0.38 0.38 l-5.396 0 c-0.22 0 -0.38 -0.16 -0.38 -0.38 c0 -0.2 0.16 -0.36 0.38 -0.36 l0.28 0 c0.408 0 0.71602 -0.286 0.71602 -0.622 l-0.004004 -10.448 c0 -0.338 -0.304 -0.63 -0.716 -0.63 l-0.28 0 c-0.22 0 -0.38 -0.16 -0.38 -0.36 c0 -0.22 0.16 -0.38 0.38 -0.38 l5.396 0 c0.22 0 0.38 0.16 0.38 0.38 c0 0.2 -0.16 0.36 -0.38 0.36 l-0.28 0 c-0.408 0 -0.71602 0.292 -0.71602 0.622 l0.004004 10.448 c0 0.334 0.304 0.63 0.716 0.63 l0.28 0 z M44.64 6.82 c0.22 0 0.38 0.16 0.38 0.36 c0 0.22 -0.16 0.38 -0.38 0.38 l-0.28 0 c-0.44 0 -0.72 0.34 -0.72 0.7 l0 11.74 l-1.68 0 l-7.46 -9.65 l0 8.21 c0 0.36 0.28 0.7 0.72 0.7 l0.28 0 c0.22 0 0.38 0.16 0.38 0.38 c0 0.2 -0.16 0.36 -0.38 0.36 l-2.9 0 c-0.22 0 -0.38 -0.16 -0.38 -0.36 c0 -0.22 0.16 -0.38 0.38 -0.38 l0.28 0 c0.44 0 0.72 -0.34 0.72 -0.7 l0 -10.3 c0 -0.36 -0.28 -0.7 -0.72 -0.7 l-0.28 0 c-0.22 0 -0.38 -0.16 -0.38 -0.38 c0 -0.2 0.16 -0.36 0.38 -0.36 l3.18 0 l6.96 8.944 l0 -7.504 c0 -0.36 -0.28 -0.7 -0.72 -0.7 l-0.28 0 c-0.22 0 -0.38 -0.16 -0.38 -0.38 c0 -0.2 0.16 -0.36 0.38 -0.36 l2.9 0 z M56.54 16.04 c0.2 0 0.36002 0.16 0.36002 0.38 l0 3.58 l-10.696 0 c-0.22 0 -0.38 -0.16 -0.38 -0.38 c0 -0.2 0.16 -0.36 0.38 -0.36 l0.28 0 c0.408 0 0.71602 -0.292 0.71602 -0.622 l-0.004004 -10.448 c0 -0.334 -0.304 -0.63 -0.716 -0.63 l-0.28 0 c-0.22 0 -0.38 -0.16 -0.38 -0.36 c0 -0.22 0.16 -0.38 0.38 -0.38 l10.7 0 l0 3.58 c0 0.22 -0.16 0.38 -0.38 0.38 c-0.2 0 -0.36 -0.16 -0.36 -0.38 l0 -0.08 c0 -1.38 -0.82 -2.76 -2.46 -2.76 l-2.384 0 c-0.408 0 -0.71602 0.286 -0.71602 0.622 l0.0019922 4.578 l0.23801 0 c1.44 0 2.16 -0.52 2.16 -1.94 l0 -0.04 c0 -0.2 0.18 -0.38 0.38 -0.38 s0.38 0.18 0.38 0.38 l0 4.74 c0 0.2 -0.18 0.38 -0.38 0.38 s-0.38 -0.16 -0.38 -0.44 l0 -0.04 c0 -1.32 -0.68 -1.88 -2.16 -1.88 l-0.23801 0 l0.0019922 5.09 c0 0.338 0.304 0.63 0.716 0.63 l2.38 0 c1.64 0 2.46 -1.38 2.46 -2.76 l0 -0.08 c0 -0.22 0.16 -0.38 0.38 -0.38 z M64.16 20.24 c-2.84 0 -4.9 -1.64 -4.9 -3.58 c0 -1.04 0.74 -1.54 1.46 -1.54 c0.64 0 1.28 0.42 1.28 1.24 c0 0.76 -0.7 1.12 -0.7 1.62 c0 0.88 1.36 1.5 2.52 1.5 c1.44 0 3.02 -0.66 3.02 -2.38 c0 -2.86 -7.24 -1.54 -7.24 -6.46 c0 -2.96 2.58 -4.06 5.36 -4.06 c2.44 0 4.72 1.38 4.72 3.24 c0 1.1 -0.74 1.62 -1.44 1.62 c-0.66 0 -1.3 -0.44 -1.3 -1.26 c0 -0.84 0.68 -1.04 0.68 -1.54 c0 -0.82 -1.36 -1.3 -2.5 -1.3 c-1.52 0 -2.86 0.62 -2.86 2.22 c0 2.74 7.74 1.72 7.74 6.54 c0 2.22 -2.18 4.14 -5.84 4.14 z"></path></g></svg>